<svg width="16" height="17" viewBox="0 0 16 17" fill="none" xmlns="http://www.w3.org/2000/svg">
<path d="M8.00008 11.8334C7.64646 11.8334 7.30732 11.6929 7.05727 11.4428C6.80722 11.1928 6.66675 10.8536 6.66675 10.5C6.66675 9.76002 7.26008 9.16669 8.00008 9.16669C8.3537 9.16669 8.69284 9.30716 8.94289 9.55721C9.19294 9.80726 9.33342 10.1464 9.33342 10.5C9.33342 10.8536 9.19294 11.1928 8.94289 11.4428C8.69284 11.6929 8.3537 11.8334 8.00008 11.8334ZM12.0001 13.8334V7.16669H4.00008V13.8334H12.0001ZM12.0001 5.83335C12.3537 5.83335 12.6928 5.97383 12.9429 6.22388C13.1929 6.47393 13.3334 6.81307 13.3334 7.16669V13.8334C13.3334 14.187 13.1929 14.5261 12.9429 14.7762C12.6928 15.0262 12.3537 15.1667 12.0001 15.1667H4.00008C3.64646 15.1667 3.30732 15.0262 3.05727 14.7762C2.80722 14.5261 2.66675 14.187 2.66675 13.8334V7.16669C2.66675 6.42669 3.26008 5.83335 4.00008 5.83335H4.66675V4.50002C4.66675 3.61597 5.01794 2.76812 5.64306 2.143C6.26818 1.51788 7.11603 1.16669 8.00008 1.16669C8.43782 1.16669 8.87127 1.25291 9.27569 1.42042C9.68011 1.58794 10.0476 1.83347 10.3571 2.143C10.6666 2.45253 10.9122 2.81999 11.0797 3.22441C11.2472 3.62883 11.3334 4.06228 11.3334 4.50002V5.83335H12.0001ZM8.00008 2.50002C7.46965 2.50002 6.96094 2.71073 6.58587 3.08581C6.21079 3.46088 6.00008 3.96959 6.00008 4.50002V5.83335H10.0001V4.50002C10.0001 3.96959 9.78937 3.46088 9.4143 3.08581C9.03922 2.71073 8.53051 2.50002 8.00008 2.50002Z" fill="#595669"/>
</svg>
