<svg width="16" height="17" viewBox="0 0 16 17" fill="none" xmlns="http://www.w3.org/2000/svg">
<path d="M14.6487 13.625C13.7918 12.121 12.4537 10.9492 10.8499 10.2981C11.6475 9.69994 12.2366 8.866 12.5338 7.9144C12.8311 6.96281 12.8214 5.94181 12.5062 4.99603C12.1909 4.05024 11.586 3.22763 10.7773 2.64471C9.96852 2.06179 8.99685 1.74811 7.99991 1.74811C7.00296 1.74811 6.03129 2.06179 5.22253 2.64471C4.41377 3.22763 3.80892 4.05024 3.49366 4.99603C3.1784 5.94181 3.16871 6.96281 3.46597 7.9144C3.76322 8.866 4.35235 9.69994 5.14991 10.2981C3.54611 10.9492 2.20806 12.121 1.35116 13.625C1.29806 13.7104 1.26267 13.8055 1.24709 13.9049C1.23152 14.0042 1.23607 14.1056 1.26048 14.2032C1.28489 14.3007 1.32867 14.3923 1.3892 14.4726C1.44973 14.5529 1.52578 14.6202 1.61284 14.6705C1.6999 14.7208 1.79617 14.753 1.89596 14.7654C1.99574 14.7777 2.09698 14.7699 2.19367 14.7423C2.29036 14.7148 2.38051 14.668 2.45878 14.6049C2.53705 14.5418 2.60184 14.4636 2.64928 14.375C3.78178 12.4175 5.78178 11.25 7.99991 11.25C10.218 11.25 12.218 12.4181 13.3505 14.375C13.4534 14.5403 13.6164 14.6592 13.8053 14.7065C13.9942 14.7537 14.194 14.7257 14.3626 14.6283C14.5312 14.5309 14.6553 14.3718 14.7087 14.1845C14.7621 13.9973 14.7405 13.7966 14.6487 13.625ZM4.74991 6.49998C4.74991 5.85719 4.94051 5.22884 5.29763 4.69438C5.65474 4.15992 6.16232 3.74336 6.75618 3.49737C7.35004 3.25139 8.00351 3.18703 8.63395 3.31243C9.26439 3.43783 9.84348 3.74736 10.298 4.20189C10.7525 4.65641 11.0621 5.2355 11.1875 5.86594C11.3129 6.49638 11.2485 7.14984 11.0025 7.7437C10.7565 8.33756 10.34 8.84514 9.80551 9.20226C9.27105 9.55937 8.64269 9.74998 7.99991 9.74998C7.13826 9.74899 6.31218 9.40626 5.7029 8.79698C5.09363 8.18771 4.7509 7.36163 4.74991 6.49998Z" fill="#595669"/>
</svg>
